<svg width="51" height="49" viewBox="0 0 51 49" fill="none" xmlns="http://www.w3.org/2000/svg">
<path fill-rule="evenodd" clip-rule="evenodd" d="M11.0702 0.76472C20.6607 -0.254907 30.3393 -0.254907 39.9297 0.76472C45.2398 1.33558 49.5237 5.34645 50.1468 10.4574C51.2844 19.7873 51.2844 29.2126 50.1468 38.5424C49.5237 43.6534 45.2398 47.6643 39.9297 48.2351C30.3393 49.255 20.6607 49.255 11.0702 48.2351C5.76023 47.6643 1.47625 43.6534 0.853186 38.5424C-0.284395 29.2136 -0.284395 19.7893 0.853186 10.4604C1.16834 7.97736 2.34848 5.66918 4.20235 3.90992C6.05622 2.15067 8.47517 1.04344 11.0671 0.767693M25.5 9.65465C26.1166 9.65465 26.7079 9.88958 27.1439 10.3078C27.5799 10.726 27.8249 11.2931 27.8249 11.8846V22.27H38.6526C39.2692 22.27 39.8605 22.505 40.2965 22.9231C40.7325 23.3413 40.9775 23.9085 40.9775 24.4999C40.9775 25.0913 40.7325 25.6585 40.2965 26.0767C39.8605 26.4949 39.2692 26.7298 38.6526 26.7298H27.8249V37.1153C27.8249 37.7067 27.5799 38.2739 27.1439 38.6921C26.7079 39.1103 26.1166 39.3452 25.5 39.3452C24.8834 39.3452 24.2921 39.1103 23.8561 38.6921C23.4201 38.2739 23.1751 37.7067 23.1751 37.1153V26.7298H12.3474C11.7308 26.7298 11.1394 26.4949 10.7034 26.0767C10.2674 25.6585 10.0225 25.0913 10.0225 24.4999C10.0225 23.9085 10.2674 23.3413 10.7034 22.9231C11.1394 22.505 11.7308 22.27 12.3474 22.27H23.1751V11.8846C23.1751 11.2931 23.4201 10.726 23.8561 10.3078C24.2921 9.88958 24.8834 9.65465 25.5 9.65465Z" fill="#E1A066"/>
</svg>
