<svg width="51" height="49" viewBox="0 0 51 49" fill="none" xmlns="http://www.w3.org/2000/svg">
<g clip-path="url(#clip0_13_4)">
<path fill-rule="evenodd" clip-rule="evenodd" d="M33.0353 26.9968C35.9805 29.0548 36.6053 32.1195 34.9032 34.6029L39.796 38.0218C40.3766 38.4418 40.6979 39.0044 40.6906 39.5884C40.6834 40.1724 40.3481 40.731 39.7571 41.144C39.1662 41.557 38.3667 41.7912 37.5309 41.7963C36.6952 41.8013 35.89 41.5768 35.2888 41.1711L30.396 37.7523C28.3604 38.4299 26.0477 38.5833 23.866 38.1853C21.6843 37.7874 19.7739 36.8637 18.4719 35.5773C17.17 34.2909 16.5603 32.7245 16.7504 31.1546C16.9404 29.5846 17.9181 28.1121 19.5107 26.9968C20.3987 26.3762 21.4529 25.8839 22.6132 25.548C23.7735 25.2122 25.0171 25.0393 26.273 25.0393C27.5289 25.0393 28.7725 25.2122 29.9328 25.548C31.0931 25.8839 32.1473 26.3762 33.0353 26.9968ZM28.5282 33.2977C28.8326 33.0923 29.0754 32.8465 29.2425 32.5748C29.4095 32.303 29.4975 32.0108 29.5011 31.715C29.5048 31.4193 29.4242 31.126 29.2639 30.8523C29.1036 30.5786 28.867 30.3299 28.5677 30.1208C28.2684 29.9116 27.9125 29.7462 27.5208 29.6343C27.129 29.5223 26.7093 29.4659 26.2861 29.4685C25.8628 29.471 25.4446 29.5325 25.0557 29.6492C24.6668 29.766 24.3151 29.9356 24.021 30.1484C23.4404 30.5684 23.1191 31.131 23.1264 31.715C23.1336 32.299 23.4689 32.8576 24.0599 33.2706C24.6509 33.6835 25.4503 33.9178 26.2861 33.9229C27.1218 33.9279 27.927 33.7034 28.5282 33.2977Z" fill="#E1A066"/>
<path d="M12.75 8.90909H38.25V13.3636H12.75V8.90909ZM38.25 17.8182H12.75V22.2727H38.25V17.8182Z" fill="#E1A066"/>
<path fill-rule="evenodd" clip-rule="evenodd" d="M0 6.68182C0 4.90969 1.00748 3.21014 2.80079 1.95706C4.59411 0.703975 7.02637 0 9.5625 0H41.4375C43.9736 0 46.4059 0.703975 48.1992 1.95706C49.9925 3.21014 51 4.90969 51 6.68182V42.3182C51 44.0903 49.9925 45.7899 48.1992 47.0429C46.4059 48.296 43.9736 49 41.4375 49H9.5625C7.02637 49 4.59411 48.296 2.80079 47.0429C1.00748 45.7899 0 44.0903 0 42.3182V6.68182ZM9.5625 4.45455H41.4375C42.2829 4.45455 43.0936 4.6892 43.6914 5.1069C44.2892 5.52459 44.625 6.09111 44.625 6.68182V42.3182C44.625 42.9089 44.2892 43.4754 43.6914 43.8931C43.0936 44.3108 42.2829 44.5455 41.4375 44.5455H9.5625C8.71712 44.5455 7.90637 44.3108 7.3086 43.8931C6.71083 43.4754 6.375 42.9089 6.375 42.3182V6.68182C6.375 6.09111 6.71083 5.52459 7.3086 5.1069C7.90637 4.6892 8.71712 4.45455 9.5625 4.45455Z" fill="#E1A066"/>
</g>
<defs>
<clipPath id="clip0_13_4">
<rect width="51" height="49" fill="white"/>
</clipPath>
</defs>
</svg>
