<svg width="52" height="49" viewBox="0 0 52 49" fill="none" xmlns="http://www.w3.org/2000/svg">
<path fill-rule="evenodd" clip-rule="evenodd" d="M26.1559 21.4275C26.176 21.3981 26.1961 21.3686 26.216 21.3391C26.2359 21.3686 26.2559 21.398 26.276 21.4274L26.1559 21.4275ZM3.29398 21.7376C3.67694 22.2649 4.09678 22.7644 4.54977 23.2324L26.1975 49L47.2921 23.8069C50.0263 21.2979 51.7368 17.7166 51.7368 13.7408C51.7368 6.15199 45.5044 0 37.8164 0C32.9744 0 28.7099 2.44018 26.216 6.14265C23.7221 2.44018 19.4575 0 14.6156 0C6.92753 0 0.695129 6.15199 0.695129 13.7408C0.695129 16.5965 1.5776 19.2486 3.08804 21.4461L3.04915 21.4461L3.29398 21.7376Z" fill="#E1A066"/>
</svg>
